<svg xmlns="http://www.w3.org/2000/svg" aria-hidden="true" style="position:absolute;width:0;height:0;overflow:hidden">
  <defs>
    <symbol id="icon-close" viewBox="0 0 33 32">
      <path d="M16.25 0c8.837 0 16 7.163 16 16s-7.163 16-16 16-16-7.163-16-16 7.163-16 16-16z"/>
      <path fill="none" stroke="#f3f3f3" stroke-linecap="round" d="m21.099 20.849-9.697-9.697M11.401 20.849l9.697-9.697" style="stroke:var(--color1, #f3f3f3)"/>
    </symbol>
    <symbol id="icon-discord" viewBox="0 0 33 32">
      <path fill="#f3f3f3" d="M26.193 7.107A22.596 22.596 0 0 0 20.5 5.334a.13.13 0 0 0-.093.04c-.24.44-.52 1.013-.707 1.453a21.453 21.453 0 0 0-6.4 0 13.515 13.515 0 0 0-.72-1.453c-.013-.027-.053-.04-.093-.04-2 .347-3.907.947-5.693 1.773-.013 0-.027.013-.04.027-3.627 5.427-4.627 10.707-4.133 15.933 0 .027.013.053.04.067 2.4 1.76 4.707 2.827 6.987 3.533.04.013.08 0 .093-.027a17.287 17.287 0 0 0 1.427-2.32c.027-.053 0-.107-.053-.12-.76-.293-1.48-.64-2.187-1.04-.053-.027-.053-.107-.013-.147.147-.107.293-.227.44-.333a.08.08 0 0 1 .093-.013c4.587 2.093 9.533 2.093 14.067 0 .027-.013.067-.013.093.013.147.12.293.227.44.347.053.04.053.12-.013.147a14.28 14.28 0 0 1-2.187 1.04c-.053.013-.067.08-.053.12.427.813.907 1.587 1.427 2.32.04.013.08.027.12.013 2.293-.707 4.6-1.773 7-3.533a.073.073 0 0 0 .04-.067c.587-6.04-.973-11.28-4.133-15.933-.013-.013-.027-.027-.053-.027zM11.86 19.88c-1.373 0-2.52-1.267-2.52-2.827s1.12-2.827 2.52-2.827c1.413 0 2.533 1.28 2.52 2.827 0 1.56-1.12 2.827-2.52 2.827zm9.293 0c-1.373 0-2.52-1.267-2.52-2.827s1.12-2.827 2.52-2.827c1.413 0 2.533 1.28 2.52 2.827 0 1.56-1.107 2.827-2.52 2.827z" style="fill:var(--color1, #f3f3f3)"/>
    </symbol>
    <symbol id="icon-github" viewBox="0 0 33 32">
      <path fill="#f3f3f3" d="M16.5 2.667a13.33 13.33 0 0 0-9.428 3.905A13.33 13.33 0 0 0 3.167 16c0 5.893 3.827 10.893 9.12 12.667.667.107.88-.307.88-.667v-2.253c-3.693.8-4.48-1.787-4.48-1.787-.613-1.547-1.48-1.96-1.48-1.96-1.213-.827.093-.8.093-.8 1.333.093 2.04 1.373 2.04 1.373C10.5 24.6 12.46 24 13.22 23.68c.12-.867.467-1.453.84-1.787-2.96-.333-6.067-1.48-6.067-6.56 0-1.48.507-2.667 1.373-3.613-.133-.333-.6-1.72.133-3.52 0 0 1.12-.36 3.667 1.36 1.053-.293 2.2-.44 3.333-.44s2.28.147 3.333.44c2.547-1.72 3.667-1.36 3.667-1.36.733 1.8.267 3.187.133 3.52.867.947 1.373 2.133 1.373 3.613 0 5.093-3.12 6.213-6.093 6.547.48.413.92 1.227.92 2.467V28c0 .36.213.787.893.667 5.293-1.787 9.107-6.773 9.107-12.667a13.33 13.33 0 0 0-8.231-12.318 13.337 13.337 0 0 0-5.102-1.015z" style="fill:var(--color1, #f3f3f3)"/>
    </symbol>
    <symbol id="icon-instagram" viewBox="0 0 33 32">
      <path fill="#f3f3f3" d="M17.871 2.667c1.5.004 2.261.012 2.919.031l.259.009c.299.011.593.024.949.04 1.419.067 2.387.291 3.236.62a6.51 6.51 0 0 1 2.363 1.537 6.53 6.53 0 0 1 1.537 2.363c.329.849.553 1.817.62 3.237.016.355.029.649.04.949l.008.259c.02.656.028 1.417.031 2.917l.001.995v1.747c.003.973-.007 1.945-.031 2.917l-.008.259c-.011.3-.024.595-.04.949-.067 1.42-.293 2.387-.621 3.237a6.538 6.538 0 0 1-1.537 2.363 6.53 6.53 0 0 1-2.363 1.537c-.849.329-1.817.553-3.236.62l-.949.04-.259.008c-.657.019-1.419.028-2.919.031l-2.74.001c-.973.003-1.946-.007-2.919-.031l-.259-.008c-.316-.012-.633-.026-.949-.041-1.419-.067-2.387-.291-3.237-.62a6.535 6.535 0 0 1-2.361-1.537 6.534 6.534 0 0 1-1.539-2.363c-.329-.849-.553-1.817-.62-3.237l-.04-.949-.007-.259c-.025-.972-.036-1.945-.033-2.917V14.63c-.004-.973.006-1.945.029-2.917l.009-.259c.011-.3.024-.595.04-.949.067-1.42.291-2.387.62-3.237a6.552 6.552 0 0 1 1.541-2.363 6.526 6.526 0 0 1 2.36-1.537c.851-.329 1.817-.553 3.237-.62.355-.016.651-.029.949-.04l.259-.008a105.07 105.07 0 0 1 2.917-.031l2.741-.001zM16.5 9.333a6.67 6.67 0 0 0-4.714 11.381A6.668 6.668 0 1 0 16.5 9.333zm0 2.667a4.001 4.001 0 1 1 0 8 4.001 4.001 0 0 1 .001-7.999zm7.001-4.667a1.667 1.667 0 1 0 0 3.332 1.667 1.667 0 0 0 0-3.331z" style="fill:var(--color1, #f3f3f3)"/>
    </symbol>
    <symbol id="icon-itch" viewBox="0 0 33 32">
      <path fill="#f3f3f3" d="M4.672 1.787C3.276 2.615.527 5.771.5 6.599v1.375c0 1.735 1.625 3.267 3.099 3.267 1.771 0 3.251-1.469 3.251-3.213 0 1.744 1.421 3.213 3.197 3.213 1.771 0 3.151-1.469 3.151-3.213 0 1.744 1.516 3.213 3.287 3.213h.032c1.776 0 3.291-1.469 3.291-3.213 0 1.744 1.381 3.213 3.152 3.213s3.197-1.469 3.197-3.213c0 1.744 1.475 3.213 3.245 3.213 1.479 0 3.104-1.532 3.104-3.267V6.599c-.032-.828-2.776-3.984-4.177-4.812-4.339-.156-7.344-.183-11.823-.183-4.484.005-10.593.073-11.828.183h-.006zm8.505 8.634a3.71 3.71 0 0 1-.625.797v.005a3.732 3.732 0 0 1-2.599 1.057 3.7 3.7 0 0 1-2.599-1.063 3.433 3.433 0 0 1-.6-.787c-.167.297-.4.552-.645.787A3.7 3.7 0 0 1 3.51 12.28h-.005a1.099 1.099 0 0 1-.349-.073 55.05 55.05 0 0 0-.224 3.937v.005c-.005.527-.005.953-.011 1.552.032 3.115-.307 10.089 1.376 11.803 2.604.604 7.396.88 12.197.885h.005c4.807-.005 9.593-.281 12.197-.885 1.683-1.713 1.344-8.688 1.376-11.803-.005-.599-.005-1.025-.011-1.552v-.005a52.28 52.28 0 0 0-.224-3.937.995.995 0 0 1-.349.073h-.005a3.7 3.7 0 0 1-2.599-1.063h.005c-.245-.235-.479-.489-.645-.787h-.005c-.159.29-.36.555-.595.787a3.711 3.711 0 0 1-5.813-.787l-.011-.016c-.172.308-.38.573-.615.803a3.7 3.7 0 0 1-2.599 1.063h-.005a.76.76 0 0 1-.104-.005.788.788 0 0 1-.109.005h-.005a3.7 3.7 0 0 1-2.593-1.063 3.373 3.373 0 0 1-.609-.787l-.011-.016.007.007zm-2.672 3.454c1.057.005 1.995 0 3.161 1.271.916-.093 1.875-.14 2.833-.14s1.917.047 2.833.14c1.167-1.271 2.104-1.271 3.161-1.271h.005c.5 0 2.5 0 3.891 3.912l1.495 5.369c1.109 3.995-.355 4.095-2.177 4.095-2.708-.1-4.208-2.068-4.208-4.037-1.5.251-3.251.371-5 .371s-3.5-.12-4.995-.371c0 1.969-1.5 3.937-4.208 4.037-1.828-.005-3.292-.1-2.183-4.095l1.495-5.369c1.396-3.912 3.396-3.912 3.896-3.912h.001zm5.995 3.078c-.005 0-2.849 2.62-3.364 3.547L15 20.427v1.625c0 .079.751.047 1.5.011.749.036 1.495.068 1.495-.011v-1.625l1.869.073c-.515-.927-3.364-3.547-3.364-3.547z" style="fill:var(--color1, #f3f3f3)"/>
    </symbol>
    <symbol id="icon-left-arrow" viewBox="0 0 32 32">
      <path fill="none" stroke="#494966" stroke-width=".5" d="M16 .25C24.698.25 31.75 7.301 31.75 16S24.698 31.75 16 31.75.25 24.698.25 16 7.301.25 16 .25z" style="stroke:var(--color2, #494966)"/>
      <path fill="none" stroke="#494966" stroke-linecap="round" stroke-width=".5" d="M18.5 9.5 12 16l6.5 6.5" style="stroke:var(--color2, #494966)"/>
    </symbol>
    <symbol id="icon-menu" viewBox="0 0 32 32">
      <path fill="none" stroke="#f3f3f3" stroke-linecap="round" stroke-width="1.454" d="M24.727 21.818H7.272M24.727 16H7.272M24.727 10.182H7.272" style="stroke:var(--color1, #f3f3f3)"/>
    </symbol>
    <symbol id="icon-right-arrow" viewBox="0 0 32 32">
      <path fill="none" stroke="#494966" stroke-width=".5" d="M16 .25C24.698.25 31.75 7.301 31.75 16S24.698 31.75 16 31.75.25 24.698.25 16 7.301.25 16 .25z" style="stroke:var(--color2, #494966)"/>
      <path fill="none" stroke="#494966" stroke-linecap="round" stroke-width=".5" d="M13.5 9.5 20 16l-6.5 6.5" style="stroke:var(--color2, #494966)"/>
    </symbol>
  </defs>
</svg>
